<?xml version="1.0" encoding="UTF-8"?>
<svg version="1.1" xmlns="http://www.w3.org/2000/svg" width="800" height="800">
<path d="M0 0 C1.13719482 0.00182281 2.27438965 0.00364563 3.44604492 0.00552368 C21.30783579 0.05358807 38.81135502 0.6468721 56.5 3.3125 C57.63018555 3.47878906 58.76037109 3.64507812 59.92480469 3.81640625 C149.75003235 17.4530728 239.60012439 62.31761584 298.875 132.41015625 C300.79772282 134.66103609 302.80636031 136.82319912 304.8125 139 C310.06550967 144.83766167 314.82114321 151.01416451 319.5 157.3125 C320.00047852 157.98313477 320.50095703 158.65376953 321.01660156 159.34472656 C334.47609091 177.44827878 346.00791669 196.35006336 356.5 216.3125 C356.88140137 217.0353418 357.26280273 217.75818359 357.65576172 218.50292969 C386.88104688 274.2586835 400.71862176 336.61665596 400.75 399.3125 C400.75101212 401.12545563 400.75101212 401.12545563 400.75204468 402.97503662 C400.73609179 420.9570733 400.3010004 438.51999891 397.5 456.3125 C397.32839355 457.4454248 397.15678711 458.57834961 396.97998047 459.74560547 C386.63969508 526.58321422 360.22073399 590.88328294 318.5 644.3125 C317.63095245 645.44879223 316.76249305 646.58553445 315.89453125 647.72265625 C310.55311106 654.6726748 304.96226262 661.26514895 298.96875 667.66015625 C297.00005394 669.7752585 295.11133948 671.91703352 293.25 674.125 C285.65900202 682.87394682 277.22115194 691.25568624 268.3671875 698.72265625 C266.1257362 700.63117231 263.97711005 702.62982429 261.8125 704.625 C255.97483833 709.87800967 249.79833549 714.63364321 243.5 719.3125 C242.82936523 719.81297852 242.15873047 720.31345703 241.46777344 720.82910156 C225.27264418 732.86973133 208.42626439 743.57361494 190.66015625 753.14208984 C188.57580467 754.27142771 186.50591322 755.42382026 184.4375 756.58203125 C101.12089467 802.68898571 -0.81029317 810.61928815 -110.0390625 785.94921875 C-182.33480966 764.66490961 -255.09692509 722.65535455 -302.46875 662.83984375 C-304.33950334 660.51219489 -306.28848331 658.31906728 -308.3125 656.125 C-329.38581805 632.55779816 -345.23108726 604.33045409 -359.5 576.3125 C-360.24685059 574.86145874 -360.24685059 574.86145874 -361.00878906 573.38110352 C-380.73848689 534.62905876 -392.2875636 491.38745203 -397.5 448.3125 C-397.63823685 447.1809549 -397.63823685 447.1809549 -397.77926636 446.02655029 C-399.56130806 430.95525273 -399.86084415 415.97719949 -399.8125 400.8125 C-399.81067719 399.62384338 -399.80885437 398.43518677 -399.80697632 397.21051025 C-399.76100183 379.38828131 -399.27598996 361.94612987 -396.5 344.3125 C-396.24259033 342.61311279 -396.24259033 342.61311279 -395.97998047 340.87939453 C-381.89002933 249.80467017 -336.64086962 161.67619395 -261.1953125 96.4453125 C-258.32287971 94.17234394 -255.53993875 91.8108079 -252.75 89.4375 C-229.14876421 69.77991544 -202.83179955 54.14114604 -175.5 40.3125 C-174.70110352 39.90499512 -173.90220703 39.49749023 -173.07910156 39.07763672 C-137.76237854 21.19024328 -98.95638156 10.11368063 -59.9375 4 C-58.53407349 3.77920776 -58.53407349 3.77920776 -57.10229492 3.55395508 C-38.10557474 0.77889783 -19.17829281 -0.06413616 0 0 Z " fill="#BB1823" transform="translate(399.5,-0.3125)"/>
<path d="M0 0 C0 0.66 0 1.32 0 2 C1.155 2.12375 2.31 2.2475 3.5 2.375 C7.78350375 2.90278885 11.83352672 3.88398037 16 5 C16 5.66 16 6.32 16 7 C17.299375 7.12375 18.59875 7.2475 19.9375 7.375 C24.71849952 7.89863328 29.33114101 8.86313835 34 10 C34 10.66 34 11.32 34 12 C34.76183594 12.12117188 35.52367187 12.24234375 36.30859375 12.3671875 C42.59527564 13.38749792 48.79770268 14.55279729 55 16 C55 16.66 55 17.32 55 18 C55.556875 18.04898438 56.11375 18.09796875 56.6875 18.1484375 C61.96567265 18.66555577 66.88362365 19.60462463 72 21 C72 21.66 72 22.32 72 23 C73.216875 23.103125 74.43375 23.20625 75.6875 23.3125 C81.90964572 23.98838803 87.93130125 25.50861963 94 27 C94 27.66 94 28.32 94 29 C94.556875 29.04898438 95.11375 29.09796875 95.6875 29.1484375 C100.96567265 29.66555577 105.88362365 30.60462463 111 32 C111 32.66 111 33.32 111 34 C112.2375 34.103125 113.475 34.20625 114.75 34.3125 C120.64362532 34.95168106 126.28618214 36.46277997 132 38 C132 38.66 132 39.32 132 40 C133.7325 40.185625 133.7325 40.185625 135.5 40.375 C139.78350375 40.90278885 143.83352672 41.88398037 148 43 C148 43.66 148 44.32 148 45 C148.886875 45.103125 149.77375 45.20625 150.6875 45.3125 C156.53602255 46.13419325 162.26151376 47.62794088 168 49 C168 49.66 168 50.32 168 51 C169.134375 51.12375 170.26875 51.2475 171.4375 51.375 C176.03337785 51.94229083 180.49901249 52.92684788 185 54 C185 54.66 185 55.32 185 56 C185.7734375 56.10957031 186.546875 56.21914062 187.34375 56.33203125 C188.90609375 56.56986328 188.90609375 56.56986328 190.5 56.8125 C191.5209375 56.96332031 192.541875 57.11414063 193.59375 57.26953125 C197 58 197 58 205 61 C205 168.91 205 276.82 205 388 C199.06 388 193.12 388 187 388 C185.76048984 384.28146952 185.86523426 380.84256246 185.87974548 376.97053528 C185.87846385 375.729374 185.87846385 375.729374 185.87715632 374.46313876 C185.87550464 371.68088908 185.88101782 368.89869923 185.88647461 366.11645508 C185.88675657 364.12589011 185.88659857 362.13532504 185.8860321 360.14476013 C185.88574449 354.7318782 185.89163539 349.31901831 185.89860606 343.90614152 C185.90484561 338.2526703 185.90544388 332.59919862 185.90663147 326.94572449 C185.90974301 316.236031 185.91795402 305.52634768 185.92798096 294.81665868 C185.93914759 282.62577042 185.94465394 270.43488168 185.94967639 258.24398959 C185.96013676 233.16265408 185.97773279 208.08132761 186 183 C184.68 183 183.36 183 182 183 C182 168.81 182 154.62 182 140 C182.99 139.67 183.98 139.34 185 139 C185.13908484 131.37672096 185.245663 123.75357359 185.31087303 116.12931442 C185.34217342 112.58884589 185.38461736 109.04924593 185.45263672 105.50927734 C185.53036697 101.43839236 185.55942785 97.36841801 185.5859375 93.296875 C185.63238907 91.39201324 185.63238907 91.39201324 185.67977905 89.44866943 C185.68103005 86.18879618 185.63550604 83.1972756 185 80 C181.58230919 76.69887437 178.16631674 75.4773829 173.625 74.25 C172.75101563 74.00765625 171.87703125 73.7653125 170.9765625 73.515625 C170.32429688 73.34546875 169.67203125 73.1753125 169 73 C169 72.34 169 71.68 169 71 C168.25234375 70.86722656 167.5046875 70.73445313 166.734375 70.59765625 C165.25710938 70.33275391 165.25710938 70.33275391 163.75 70.0625 C162.28820312 69.80146484 162.28820312 69.80146484 160.796875 69.53515625 C158.50278205 69.09620271 156.25708029 68.59651408 154 68 C154 67.34 154 66.68 154 66 C152.948125 65.896875 151.89625 65.79375 150.8125 65.6875 C144.77734301 64.94805734 138.90153295 63.43040204 133 62 C133 61.34 133 60.68 133 60 C131.83984375 59.81824219 131.83984375 59.81824219 130.65625 59.6328125 C124.68117941 58.67147688 118.84407421 57.57340459 113 56 C113 55.34 113 54.68 113 54 C111.2675 53.814375 111.2675 53.814375 109.5 53.625 C105.21649625 53.09721115 101.16647328 52.11601963 97 51 C97 50.34 97 49.68 97 49 C95.0509375 48.814375 95.0509375 48.814375 93.0625 48.625 C88.28150048 48.10136672 83.66885899 47.13686165 79 46 C79 45.34 79 44.68 79 44 C77.948125 43.896875 76.89625 43.79375 75.8125 43.6875 C69.77734301 42.94805734 63.90153295 41.43040204 58 40 C58 39.34 58 38.68 58 38 C56.7625 37.896875 55.525 37.79375 54.25 37.6875 C48.35637468 37.04831894 42.71381786 35.53722003 37 34 C37 33.34 37 32.68 37 32 C36.443125 31.95101562 35.88625 31.90203125 35.3125 31.8515625 C30.03432735 31.33444423 25.11637635 30.39537537 20 29 C20 28.34 20 27.68 20 27 C19.0925 26.896875 18.185 26.79375 17.25 26.6875 C11.73717848 25.91456832 6.37884538 24.40432909 1 23 C1 22.34 1 21.68 1 21 C0.236875 20.87625 -0.52625 20.7525 -1.3125 20.625 C-3.42423709 20.26707846 -5.53409548 19.89634591 -7.63671875 19.48828125 C-8.58160156 19.30652344 -9.52648437 19.12476563 -10.5 18.9375 C-11.3971875 18.76089844 -12.294375 18.58429688 -13.21875 18.40234375 C-22.43209547 17.06951428 -28.19928106 20.43865795 -35.51171875 25.86328125 C-37.15341001 27.18245023 -38.78339665 28.51629674 -40.40234375 29.86328125 C-43.20530816 32.16887754 -46.08549519 34.33738532 -49 36.5 C-53.79241505 40.06025666 -58.44562812 43.75340975 -63.0390625 47.56640625 C-65 49 -65 49 -67 49 C-67 49.66 -67 50.32 -67 51 C-68.98 51.66 -70.96 52.32 -73 53 C-72.67 53.99 -72.34 54.98 -72 56 C-69.67108904 57.02700444 -69.67108904 57.02700444 -66.9375 57.6875 C-65.55884766 58.06455078 -65.55884766 58.06455078 -64.15234375 58.44921875 C-63.44207031 58.63097656 -62.73179687 58.81273437 -62 59 C-62 59.66 -62 60.32 -62 61 C-60.948125 61.103125 -59.89625 61.20625 -58.8125 61.3125 C-52.77734301 62.05194266 -46.90153295 63.56959796 -41 65 C-41 65.66 -41 66.32 -41 67 C-39.948125 67.103125 -38.89625 67.20625 -37.8125 67.3125 C-31.77734301 68.05194266 -25.90153295 69.56959796 -20 71 C-20 71.66 -20 72.32 -20 73 C-18.865625 73.12375 -17.73125 73.2475 -16.5625 73.375 C-11.96662215 73.94229083 -7.50098751 74.92684788 -3 76 C-3 76.66 -3 77.32 -3 78 C-1.865625 78.12375 -0.73125 78.2475 0.4375 78.375 C5.03337785 78.94229083 9.49901249 79.92684788 14 81 C14 81.66 14 82.32 14 83 C15.093125 83.103125 16.18625 83.20625 17.3125 83.3125 C21.62458175 83.85527952 25.6814259 84.91845928 29.85546875 86.109375 C34.75483274 87.49702095 39.68902111 88.75424453 44.6171875 90.03515625 C52.19709208 92.19709208 52.19709208 92.19709208 54 94 C54.09525367 96.92194665 54.12552736 99.82020329 54.11352539 102.74243164 C54.11367142 103.6594133 54.11381744 104.57639496 54.1139679 105.52116394 C54.1132684 108.56751836 54.10547428 111.61381245 54.09765625 114.66015625 C54.0957922 116.76622993 54.09436824 118.87230403 54.09336853 120.9783783 C54.08954231 126.53342883 54.07971114 132.08845341 54.06866455 137.64349365 C54.05845267 143.3072474 54.05387139 148.97100533 54.04882812 154.63476562 C54.03808896 165.75652185 54.0210113 176.87825877 54 188 C57.32188258 186.44159126 59.20339278 184.89659525 61.5625 182.0625 C66.02514828 176.74509057 66.02514828 176.74509057 68 175 C68.66 175 69.32 175 70 175 C70 174.34 70 173.68 70 173 C74.82581649 168.17418351 74.82581649 168.17418351 78.94921875 167.5625 C82 168 82 168 84.23046875 169.9765625 C84.87628906 170.85054687 85.52210938 171.72453125 86.1875 172.625 C86.86167969 173.53507813 87.53585937 174.44515625 88.23046875 175.3828125 C93 182.43708609 93 182.43708609 93 186 C93.99 186.33 94.98 186.66 96 187 C97.43867301 189.29433538 98.74046732 191.54864948 100 193.9375 C102.67587229 199.13311173 102.67587229 199.13311173 107 203 C107.495 157.955 107.495 157.955 108 112 C117 113.125 117 113.125 121 114.0625 C121.763125 114.23910156 122.52625 114.41570312 123.3125 114.59765625 C123.869375 114.73042969 124.42625 114.86320312 125 115 C125 115.66 125 116.32 125 117 C125.969375 117.144375 126.93875 117.28875 127.9375 117.4375 C131 118 131 118 132 119 C132.10159719 120.62065634 132.13291358 122.24575344 132.13701439 123.86958599 C132.14208893 124.9303125 132.14716347 125.991039 132.15239179 127.08390874 C132.15288955 128.26364241 132.15338731 129.44337608 132.15390015 130.65885925 C132.16047353 132.522016 132.16047353 132.522016 132.1671797 134.42281228 C132.1782741 137.88646062 132.18480139 141.35006359 132.18936086 144.81372321 C132.19530442 148.54324427 132.20691747 152.27274854 132.21765137 156.0022583 C132.24220579 165.01788555 132.25680788 174.03351838 132.26971143 183.0491688 C132.27342144 185.59445376 132.27739484 188.13973818 132.2814641 190.68502259 C132.30670096 206.4808242 132.32876064 222.27662663 132.34119225 238.07244396 C132.3441221 241.73359874 132.34708374 245.39475349 132.35009766 249.0559082 C132.35084371 249.96590634 132.35158976 250.87590449 132.35235842 251.81347833 C132.36501314 266.55633393 132.39823568 281.29906895 132.43989949 296.04186817 C132.48229786 311.16827562 132.50588494 326.29462132 132.51111281 341.42108804 C132.51452955 349.91795042 132.52631533 358.41462447 132.55921555 366.91142845 C132.58718863 374.14777506 132.5982276 381.38389477 132.58702008 388.62029126 C132.58182609 392.3132838 132.58476726 396.00580097 132.60948563 399.69872475 C132.63605485 403.7015555 132.62394303 407.70333573 132.60800171 411.70622253 C132.6218838 412.8748026 132.63576588 414.04338266 132.65006864 415.24737424 C132.56382743 424.00667553 132.56382743 424.00667553 129.59798622 427.74101734 C127 430 127 430 124.82421875 430.4375 C124.11910156 430.293125 123.41398438 430.14875 122.6875 430 C121.91921875 429.85691406 121.1509375 429.71382812 120.359375 429.56640625 C119.58078125 429.37949219 118.8021875 429.19257812 118 429 C117.22140625 428.82339844 116.4428125 428.64679688 115.640625 428.46484375 C113.75141535 428.01263931 111.87412715 427.51112559 110 427 C110 426.34 110 425.68 110 425 C108.88625 424.87625 107.7725 424.7525 106.625 424.625 C101.69539009 424.01542458 96.85755745 423.02526315 92 422 C92 421.34 92 420.68 92 420 C90.845 419.87625 89.69 419.7525 88.5 419.625 C84.21649625 419.09721115 80.16647328 418.11601963 76 417 C76 416.34 76 415.68 76 415 C75.01902344 414.87753906 74.03804687 414.75507812 73.02734375 414.62890625 C68.79263208 414.02394744 64.69989627 413.00875631 60.5625 411.9375 C59.83095703 411.75123047 59.09941406 411.56496094 58.34570312 411.37304688 C56.56296802 410.9186242 54.78136213 410.45977534 53 410 C53 409.34 53 408.68 53 408 C52.443125 407.95101563 51.88625 407.90203125 51.3125 407.8515625 C46.03432735 407.33444423 41.11637635 406.39537537 36 405 C36 404.34 36 403.68 36 403 C34.865625 402.87625 33.73125 402.7525 32.5625 402.625 C27.96662215 402.05770917 23.50098751 401.07315212 19 400 C19 399.34 19 398.68 19 398 C17.7625 397.896875 16.525 397.79375 15.25 397.6875 C9.35637468 397.04831894 3.71381786 395.53722003 -2 394 C-2 393.34 -2 392.68 -2 392 C-3.134375 391.87625 -4.26875 391.7525 -5.4375 391.625 C-10.03337785 391.05770917 -14.49901249 390.07315212 -19 389 C-19 388.34 -19 387.68 -19 387 C-19.58265625 386.96261719 -20.1653125 386.92523437 -20.765625 386.88671875 C-27.7343058 386.32790944 -34.26455965 384.84009453 -41 383 C-41 382.34 -41 381.68 -41 381 C-42.216875 380.896875 -43.43375 380.79375 -44.6875 380.6875 C-50.90964572 380.01161197 -56.93130125 378.49138037 -63 377 C-63 376.34 -63 375.68 -63 375 C-63.556875 374.95101563 -64.11375 374.90203125 -64.6875 374.8515625 C-69.96567265 374.33444423 -74.88362365 373.39537537 -80 372 C-80 371.34 -80 370.68 -80 370 C-80.72445313 369.87882812 -81.44890625 369.75765625 -82.1953125 369.6328125 C-83.16210938 369.46523438 -84.12890625 369.29765625 -85.125 369.125 C-86.55199219 368.88136719 -86.55199219 368.88136719 -88.0078125 368.6328125 C-91 368 -91 368 -97 366 C-97.33 274.59 -97.66 183.18 -98 89 C-98.66 89 -99.32 89 -100 89 C-101.28947284 86.42105432 -101.1294785 84.5447811 -101.1328125 81.66015625 C-101.13410156 80.59732422 -101.13539063 79.53449219 -101.13671875 78.43945312 C-101.13285156 77.32505859 -101.12898437 76.21066406 -101.125 75.0625 C-101.12886719 73.95197266 -101.13273438 72.84144531 -101.13671875 71.69726562 C-101.13542969 70.63314453 -101.13414062 69.56902344 -101.1328125 68.47265625 C-101.13168457 67.49562744 -101.13055664 66.51859863 -101.12939453 65.51196289 C-101 63 -101 63 -100 60 C-99.34 60 -98.68 60 -98 60 C-97.95101562 59.40832031 -97.90203125 58.81664062 -97.8515625 58.20703125 C-97.43543133 53.80895528 -96.95034405 50.03071103 -95 46 C-94.34 46 -93.68 46 -93 46 C-92.74089844 45.39671875 -92.48179687 44.7934375 -92.21484375 44.171875 C-90.88808385 41.7999184 -89.76510679 40.80693619 -87.5625 39.25 C-86.85351562 38.74082031 -86.14453125 38.23164063 -85.4140625 37.70703125 C-84.61742187 37.14371094 -83.82078125 36.58039063 -83 36 C-81.14485241 34.64717747 -79.29072363 33.29295695 -77.4375 31.9375 C-76.0453125 30.93009766 -76.0453125 30.93009766 -74.625 29.90234375 C-73.01514298 28.73567654 -71.40984189 27.56265069 -69.8125 26.37890625 C-65.21795326 23 -65.21795326 23 -63 23 C-62.505 21.515 -62.505 21.515 -62 20 C-60.69347967 19.07168292 -59.375485 18.15685594 -58.015625 17.30859375 C-54.4213573 14.975106 -51.02582171 12.35810295 -47.5859375 9.8046875 C-45 8 -45 8 -42.8515625 6.9453125 C-40.78959945 5.89258031 -39.61013211 4.65120691 -38 3 C-36.5237664 1.92491684 -35.02184184 0.88448842 -33.5 -0.125 C-32.7265625 -0.64320313 -31.953125 -1.16140625 -31.15625 -1.6953125 C-22.3622573 -7.01631533 -9.26736654 -2.17975041 0 0 Z " fill="#FEFDFD" transform="translate(341,186)"/>
<path d="M0 0 C0.78890625 0.02578125 1.5778125 0.0515625 2.390625 0.078125 C5.19815641 0.28821238 7.92996511 0.68435182 10.6875 1.25 C10.6875 1.91 10.6875 2.57 10.6875 3.25 C11.986875 3.3325 13.28625 3.415 14.625 3.5 C22.46500565 4.25798034 30.06251319 6.34817614 37.6875 8.25 C37.6875 8.91 37.6875 9.57 37.6875 10.25 C41.6475 10.91 45.6075 11.57 49.6875 12.25 C49.6875 12.91 49.6875 13.57 49.6875 14.25 C50.904375 14.353125 52.12125 14.45625 53.375 14.5625 C59.59714572 15.23838803 65.61880125 16.75861963 71.6875 18.25 C71.6875 18.91 71.6875 19.57 71.6875 20.25 C72.925 20.353125 74.1625 20.45625 75.4375 20.5625 C81.33112532 21.20168106 86.97368214 22.71277997 92.6875 24.25 C92.6875 24.91 92.6875 25.57 92.6875 26.25 C93.244375 26.29898438 93.80125 26.34796875 94.375 26.3984375 C99.65317265 26.91555577 104.57112365 27.85462463 109.6875 29.25 C109.6875 29.91 109.6875 30.57 109.6875 31.25 C110.904375 31.353125 112.12125 31.45625 113.375 31.5625 C119.59714572 32.23838803 125.61880125 33.75861963 131.6875 35.25 C131.6875 35.91 131.6875 36.57 131.6875 37.25 C133.42 37.435625 133.42 37.435625 135.1875 37.625 C139.47100375 38.15278885 143.52102672 39.13398037 147.6875 40.25 C147.6875 40.91 147.6875 41.57 147.6875 42.25 C148.51894531 42.38277344 149.35039062 42.51554687 150.20703125 42.65234375 C151.29371094 42.82894531 152.38039063 43.00554687 153.5 43.1875 C154.57894531 43.36152344 155.65789062 43.53554688 156.76953125 43.71484375 C159.6875 44.25 159.6875 44.25 162.6875 45.25 C162.6875 45.91 162.6875 46.57 162.6875 47.25 C163.63109375 47.43175781 163.63109375 47.43175781 164.59375 47.6171875 C170.00582326 48.67678016 175.34921034 49.86599898 180.6875 51.25 C180.6875 51.91 180.6875 52.57 180.6875 53.25 C184.6475 54.24 184.6475 54.24 188.6875 55.25 C188.82475512 92.25353822 188.93051822 129.25703818 188.99389198 166.26077934 C189.00139645 170.62681555 189.00916236 174.99285126 189.01708984 179.35888672 C189.01866371 180.22810638 189.02023757 181.09732603 189.02185912 181.99288568 C189.0479856 196.07758915 189.09530322 210.16214608 189.15041678 224.24676254 C189.20647442 238.69285124 189.23984176 253.13886306 189.25203097 267.58505607 C189.26027447 276.50325373 189.28633435 285.42103722 189.3349988 294.33910742 C189.36665115 300.44991914 189.37631507 306.56051594 189.36850826 312.67140374 C189.36465514 316.20019791 189.37066803 319.72826711 189.40273285 323.25693321 C189.43720861 327.07872544 189.42546815 330.89956543 189.4090271 334.72149658 C189.42650415 335.84211117 189.4439812 336.96272576 189.46198785 338.11729836 C189.42877331 340.95776611 189.35906627 343.49003368 188.6875 346.25 C185.75959206 348.82209396 185.75959206 348.82209396 182.6875 350.25 C181.759375 351.425625 181.759375 351.425625 180.8125 352.625 C177.41830207 356.81783274 173.38108141 360.89085581 167.875 361.625 C164.88090723 359.74299883 164.42017536 357.67542837 163.4609375 354.35546875 C162.78900303 352.16423524 162.78900303 352.16423524 161.16320771 350.41271329 C159.4292796 347.87156686 159.30980093 346.58615894 159.30273914 343.54111862 C159.2932826 342.59263762 159.28382606 341.64415662 159.27408296 340.66693377 C159.27893053 339.6280291 159.28377811 338.58912443 159.28877258 337.51873779 C159.28212576 336.41276096 159.27547893 335.30678412 159.26863068 334.16729283 C159.24992611 330.44835 159.25261105 326.7297268 159.25512695 323.01074219 C159.24611435 320.3500735 159.23591999 317.68943388 159.22424316 315.02877808 C159.20143708 309.29390614 159.18956861 303.55909502 159.18511391 297.8241806 C159.17865737 289.53245888 159.15572879 281.2408472 159.12877061 272.94916978 C159.08548134 259.49672762 159.05552682 246.04429008 159.03393555 232.59179688 C159.01293226 219.52341436 158.98566287 206.45506971 158.94995117 193.38671875 C158.94775235 192.58128084 158.94555352 191.77584293 158.94328807 190.9459978 C158.93221858 186.90538082 158.92102574 182.86476418 158.90977156 178.8241477 C158.81655616 145.29946346 158.74497225 111.77476448 158.6875 78.25 C157.0375 77.59 155.3875 76.93 153.6875 76.25 C153.6875 75.59 153.6875 74.93 153.6875 74.25 C152.63949219 74.04503906 151.59148437 73.84007812 150.51171875 73.62890625 C149.13279231 73.35687314 147.75388717 73.08473209 146.375 72.8125 C145.68470703 72.67779297 144.99441406 72.54308594 144.28320312 72.40429688 C141.34460993 71.82225668 138.53293315 71.19847772 135.6875 70.25 C135.6875 69.59 135.6875 68.93 135.6875 68.25 C134.635625 68.146875 133.58375 68.04375 132.5 67.9375 C126.46484301 67.19805734 120.58903295 65.68040204 114.6875 64.25 C114.6875 63.59 114.6875 62.93 114.6875 62.25 C112.955 62.064375 112.955 62.064375 111.1875 61.875 C106.90399625 61.34721115 102.85397328 60.36601963 98.6875 59.25 C98.6875 58.59 98.6875 57.93 98.6875 57.25 C97.553125 57.12625 96.41875 57.0025 95.25 56.875 C90.65412215 56.30770917 86.18848751 55.32315212 81.6875 54.25 C81.6875 53.59 81.6875 52.93 81.6875 52.25 C71.7875 50.27 71.7875 50.27 61.6875 48.25 C61.6875 47.59 61.6875 46.93 61.6875 46.25 C60.470625 46.146875 59.25375 46.04375 58 45.9375 C51.77785428 45.26161197 45.75619875 43.74138037 39.6875 42.25 C39.6875 41.59 39.6875 40.93 39.6875 40.25 C37.9859375 40.064375 37.9859375 40.064375 36.25 39.875 C31.65412215 39.30770917 27.18848751 38.32315212 22.6875 37.25 C22.6875 36.59 22.6875 35.93 22.6875 35.25 C21.78 35.146875 20.8725 35.04375 19.9375 34.9375 C14.42467848 34.16456832 9.06634538 32.65432909 3.6875 31.25 C3.6875 30.59 3.6875 29.93 3.6875 29.25 C2.594375 29.146875 1.50125 29.04375 0.375 28.9375 C-5.00215184 28.2810434 -10.12428648 26.766408 -15.3125 25.25 C-15.3125 24.59 -15.3125 23.93 -15.3125 23.25 C-18.6125 22.59 -21.9125 21.93 -25.3125 21.25 C-24.19668088 15.67090439 -23.39624672 14.88986121 -19.3125 11.25 C-18.74789063 10.72921875 -18.18328125 10.2084375 -17.6015625 9.671875 C-14.29161102 6.69436406 -11.53788377 4.77583303 -7.3125 3.25 C-6.86003906 2.74339844 -6.40757812 2.23679688 -5.94140625 1.71484375 C-3.84262134 -0.17255276 -2.78123165 -0.09607018 0 0 Z " fill="#FCFAFA" transform="translate(323.3125,216.75)"/>
<path d="M0 0 C5.92156564 1.18431313 11.35581376 2.29133137 17.0625 4 C21.13080649 5.19917331 25.15425948 6.29070334 29.3125 7.125 C31.1378125 7.558125 31.1378125 7.558125 33 8 C34.3783621 10.75672421 34.13482398 12.98512816 34.14526367 16.0703125 C34.15164352 17.34503418 34.15802338 18.61975586 34.16459656 19.93310547 C34.166125 21.33040326 34.16723909 22.72770156 34.16796875 24.125 C34.17118063 25.55224644 34.17454465 26.97949254 34.17805481 28.40673828 C34.18404652 31.39942183 34.18589462 34.3920765 34.18530273 37.38476562 C34.185201 41.2251432 34.19886481 45.06533636 34.21607494 48.90567017 C34.22717552 51.85328019 34.22922256 54.80084533 34.22869301 57.74847412 C34.22987562 59.16469968 34.23431306 60.5809263 34.24202538 61.99713135 C34.25178755 63.97462599 34.24769279 65.95217452 34.24291992 67.9296875 C34.24434494 69.05616699 34.24576996 70.18264648 34.24723816 71.34326172 C34 74 34 74 32 76 C27.73226353 73.86613177 26.67568238 72.35677419 25 68 C22.99983534 66.79117904 22.99983534 66.79117904 21 66 C19.5216774 63.04335481 19.93967217 60.25770263 20 57 C16.56416784 58.41475442 13.37607482 59.77435511 10.1875 61.6875 C8 63 8 63 6 63 C6 63.66 6 64.32 6 65 C3.03 65.99 3.03 65.99 0 67 C0 44.89 0 22.78 0 0 Z " fill="#FDFCFC" transform="translate(405,282)"/>
<path d="M0 0 C0.66 0 1.32 0 2 0 C2 107.91 2 215.82 2 327 C-3.94 327 -9.88 327 -16 327 C-17.23951016 323.28146952 -17.13476574 319.84256246 -17.12025452 315.97053528 C-17.12153615 314.729374 -17.12153615 314.729374 -17.12284368 313.46313876 C-17.12449536 310.68088908 -17.11898218 307.89869923 -17.11352539 305.11645508 C-17.11324343 303.12589011 -17.11340143 301.13532504 -17.1139679 299.14476013 C-17.11425551 293.7318782 -17.10836461 288.31901831 -17.10139394 282.90614152 C-17.09515439 277.2526703 -17.09455612 271.59919862 -17.09336853 265.94572449 C-17.09025699 255.236031 -17.08204598 244.52634768 -17.07201904 233.81665868 C-17.06085241 221.62577042 -17.05534606 209.43488168 -17.05032361 197.24398959 C-17.03986324 172.16265408 -17.02226721 147.08132761 -17 122 C-18.32 122 -19.64 122 -21 122 C-21 107.81 -21 93.62 -21 79 C-20.67 79 -20.34 79 -20 79 C-20 92.53 -20 106.06 -20 120 C-18.35 120 -16.7 120 -15 120 C-15 187.98 -15 255.96 -15 326 C-9.72 326 -4.44 326 1 326 C0.67 218.42 0.34 110.84 0 0 Z " fill="#CF9EA0" transform="translate(544,247)"/>
<path d="M0 0 C2.31 0.33 4.62 0.66 7 1 C7 1.33 7 1.66 7 2 C5.02 2 3.04 2 1 2 C1.33 22.13 1.66 42.26 2 63 C3.32 63.66 4.64 64.32 6 65 C3.03 65.99 3.03 65.99 0 67 C0 44.89 0 22.78 0 0 Z " fill="#EBD6D8" transform="translate(405,282)"/>
<path d="M0 0 C0.66 0.33 1.32 0.66 2 1 C-3.94 6.94 -9.88 12.88 -16 19 C-16.66 18.67 -17.32 18.34 -18 18 C-16.89718873 16.72799029 -15.79269231 15.45744147 -14.6875 14.1875 C-14.07261719 13.47980469 -13.45773437 12.77210938 -12.82421875 12.04296875 C-9.55088953 8.3771204 -9.55088953 8.3771204 -8 7 C-7.34 7 -6.68 7 -6 7 C-6 6.34 -6 5.68 -6 5 C-4.04072937 3.2856382 -2.04119788 1.61594832 0 0 Z " fill="#E7D1D3" transform="translate(417,354)"/>
<path d="M0 0 C0.33 0.66 0.66 1.32 1 2 C0.20335937 2.67095703 0.20335937 2.67095703 -0.609375 3.35546875 C-4.50473511 6.68927148 -7.81898796 9.96256164 -11 14 C-11.66 14 -12.32 14 -13 14 C-12.67 12.68 -12.34 11.36 -12 10 C-11.34 10 -10.68 10 -10 10 C-9.75507813 9.40703125 -9.51015625 8.8140625 -9.2578125 8.203125 C-7.79047891 5.63301274 -6.27707775 4.45470034 -3.875 2.75 C-3.15054688 2.22921875 -2.42609375 1.7084375 -1.6796875 1.171875 C-1.12539063 0.78515625 -0.57109375 0.3984375 0 0 Z " fill="#E5C9CA" transform="translate(258,222)"/>
<path d="M0 0 C0.33 0 0.66 0 1 0 C1.33 5.61 1.66 11.22 2 17 C3.32 17.66 4.64 18.32 6 19 C4.02 19.66 2.04 20.32 0 21 C0 14.07 0 7.14 0 0 Z " fill="#D8AFB2" transform="translate(405,328)"/>
<path d="M0 0 C0.66 0.33 1.32 0.66 2 1 C1.28972656 1.69867188 0.57945312 2.39734375 -0.15234375 3.1171875 C-1.07144531 4.02726563 -1.99054688 4.93734375 -2.9375 5.875 C-4.31228516 7.23238281 -4.31228516 7.23238281 -5.71484375 8.6171875 C-8.01187627 10.77682255 -8.01187627 10.77682255 -9 13 C-8.01 13.33 -7.02 13.66 -6 14 C-7.32 14 -8.64 14 -10 14 C-9.58181281 9.12114941 -7.55070071 7.22040297 -4 4 C-3.236875 3.236875 -2.47375 2.47375 -1.6875 1.6875 C-1.130625 1.130625 -0.57375 0.57375 0 0 Z " fill="#E9D2D4" transform="translate(308,224)"/>
</svg>
